M48
; DRILL file {KiCad 9.0.7} date 2026-05-07T19:48:59-0300
; FORMAT={-:-/ absolute / metric / decimal}
; #@! TF.CreationDate,2026-05-07T19:48:59-03:00
; #@! TF.GenerationSoftware,Kicad,Pcbnew,9.0.7
; #@! TF.FileFunction,Plated,1,2,PTH
FMAT,2
METRIC
; #@! TA.AperFunction,Plated,PTH,ComponentDrill
T1C0.800
; #@! TA.AperFunction,Plated,PTH,ComponentDrill
T2C1.000
; #@! TA.AperFunction,Plated,PTH,ComponentDrill
T3C1.300
%
G90
G05
T1
X145.34Y-121.0
X145.34Y-133.7
X147.88Y-121.0
X147.88Y-133.7
X150.42Y-121.0
X150.42Y-133.7
X152.96Y-121.0
X152.96Y-133.7
X155.5Y-121.0
X155.5Y-133.7
X158.04Y-121.0
X158.04Y-133.7
X160.58Y-121.0
X160.58Y-133.7
X163.12Y-121.0
X163.12Y-133.7
X191.0Y-76.5
X194.5Y-76.5
T2
X129.96Y-100.5
X132.5Y-100.5
X134.02Y-52.24
X135.04Y-100.5
X136.56Y-52.24
X137.58Y-100.5
X139.1Y-52.24
X140.12Y-100.5
X141.64Y-52.24
X142.66Y-100.5
X144.18Y-52.24
X145.2Y-100.5
X146.72Y-52.24
X147.74Y-100.5
X149.26Y-52.24
X151.8Y-52.24
X151.8Y-100.5
X154.34Y-100.5
X156.88Y-52.24
X156.88Y-100.5
X159.42Y-52.24
X159.42Y-100.5
X161.96Y-52.24
X161.96Y-100.5
X164.5Y-52.24
X164.5Y-100.5
X167.04Y-52.24
X167.04Y-100.5
X169.58Y-52.24
X169.58Y-100.5
X206.5Y-114.0
X206.5Y-116.54
X206.5Y-119.08
X211.5Y-118.5
X211.5Y-121.04
X211.5Y-123.58
X215.5Y-54.46
X215.5Y-57.0
X215.5Y-59.54
X215.5Y-62.08
X215.5Y-64.62
X215.5Y-73.5
X215.5Y-76.04
X215.5Y-78.58
X215.5Y-81.12
X215.5Y-83.66
X216.5Y-114.0
X216.5Y-116.54
X216.5Y-119.08
X221.5Y-118.5
X221.5Y-121.04
X221.5Y-123.58
T3
X152.0Y-109.5
X157.0Y-109.5
X162.0Y-109.5
X167.0Y-109.5
X181.25Y-116.968
X186.25Y-116.968
X210.0Y-97.0
X215.0Y-97.0
M30
